<svg width="20" height="20" viewBox="0 0 20 20" fill="none" xmlns="http://www.w3.org/2000/svg">
<g clip-path="url(#clip0_646_1344)">
<path d="M20 16.131C20 17.6918 18.723 18.9688 17.1621 18.9688H2.83787C1.27704 18.9688 0 17.6918 0 16.131V2.90037C0 1.33954 1.27704 0.0625 2.83787 0.0625H17.1621C18.723 0.0625 20 1.33954 20 2.90037V16.131Z" fill="white"/>
<path d="M3.58486 16.6134C3.50758 16.5807 3.44908 16.5392 3.54251 16.4624C3.5984 16.4165 3.66214 16.3798 3.72283 16.3405C4.29302 15.9703 4.8296 15.5625 5.18324 14.9657C5.47881 14.4667 5.43166 14.1755 5.06317 13.807C2.99546 11.7366 2.08341 9.25984 2.53834 6.33683C2.7955 4.68519 3.55168 3.25971 4.64928 2.01978C5.31203 1.27102 6.10227 0.663276 6.96717 0.155952C7.01825 0.125827 7.09553 0.118405 7.10513 0.0406909C7.0881 -0.00165886 7.05449 0.0110024 7.02873 0.0110024C5.55958 0.0101292 4.08913 -0.0182495 2.62042 0.0197343C1.21808 0.0555351 0.00128668 1.14309 0.00477944 2.70392C0.0139479 7.25892 0.00477944 11.8135 0.00390625 16.3685C0.00390625 17.7809 1.08186 18.9654 2.4925 19.0199C3.68353 19.0662 4.87806 19.0274 6.07127 19.026C6.15859 19.0287 6.24548 19.0339 6.33279 19.0339C8.43544 19.0343 10.5385 19.0343 12.6412 19.0343C14.2129 19.0343 15.7846 19.0405 17.356 19.0322C18.8338 19.0243 19.9943 17.8481 19.996 16.3737C19.9969 15.5224 19.9969 14.671 19.9952 13.8196C19.9952 13.7576 20.0161 13.6913 19.9773 13.6293C19.9004 13.6354 19.8699 13.7 19.8266 13.7428C18.9709 14.5972 17.9899 15.2735 16.8857 15.7599C14.2002 16.9422 11.4658 17.0278 8.69696 16.0742C8.44373 15.9869 8.19662 15.9777 7.94732 16.0415C7.58146 16.1353 7.21865 16.2428 6.85715 16.3536C5.78487 16.682 4.69949 16.8326 3.58486 16.6134Z" fill="#223970"/>
<path d="M6.58877 8.82316C7.24934 8.82316 7.86581 8.81923 8.48272 8.82447C8.82894 8.82752 9.01624 8.97465 9.04811 9.24753C9.08828 9.59287 8.88701 9.82209 8.51284 9.82602C7.8073 9.83387 7.10133 9.82907 6.39579 9.82907C6.1919 9.82907 5.98801 9.83606 5.78499 9.82427C5.53177 9.80986 5.28422 9.75965 5.16285 9.49813C5.04147 9.23618 5.12573 9.00129 5.29339 8.78823C5.96793 7.93075 6.6429 7.07372 7.31788 6.21624C7.35805 6.16516 7.39647 6.11321 7.43576 6.06256C7.39472 5.98791 7.32923 6.02152 7.27815 6.02109C6.80532 6.01803 6.33248 6.02152 5.85965 6.01759C5.75138 6.01672 5.64048 6.00799 5.53613 5.98092C5.31653 5.92329 5.18337 5.74778 5.18162 5.53821C5.17987 5.32821 5.3091 5.15052 5.52784 5.08896C5.63131 5.0597 5.74308 5.04966 5.85092 5.04922C6.62937 5.04617 7.40782 5.04617 8.18627 5.04879C8.3238 5.04922 8.4622 5.05272 8.5958 5.099C8.89093 5.20072 9.02104 5.47316 8.90098 5.76088C8.79663 6.01192 8.62985 6.22498 8.46351 6.43673C7.89288 7.16322 7.32006 7.88753 6.74812 8.61315C6.70359 8.67035 6.66124 8.72798 6.58877 8.82316Z" fill="#223970"/>
<path d="M11.6524 6.52391C11.7585 6.38988 11.8642 6.26414 12.044 6.22747C12.3872 6.15761 12.7125 6.38027 12.7168 6.72911C12.7282 7.60187 12.7243 8.47462 12.719 9.34738C12.7177 9.58576 12.5706 9.76825 12.3558 9.8416C12.1305 9.91801 11.896 9.86256 11.7459 9.67264C11.6721 9.57964 11.6406 9.56393 11.538 9.64688C11.1403 9.96909 10.6919 10.0254 10.2073 9.86823C9.42971 9.61588 9.10969 9.00989 9.02499 8.26811C8.93418 7.47089 9.19963 6.78674 9.91302 6.36718C10.5055 6.01921 11.1076 6.04846 11.6524 6.52391ZM10.1091 8.12011C10.1134 8.2703 10.1628 8.472 10.2929 8.64751C10.5753 9.02866 11.1551 9.02735 11.4376 8.64664C11.6825 8.31657 11.6812 7.76908 11.4363 7.43902C11.3066 7.26482 11.1337 7.17357 10.9181 7.16091C10.4391 7.13296 10.1043 7.5032 10.1091 8.12011Z" fill="#223970"/>
<path d="M14.6808 8.14824C14.6476 7.02707 15.3828 6.18968 16.4289 6.15737C17.5405 6.12331 18.356 6.87076 18.3892 7.96007C18.4228 9.06335 17.7461 9.84617 16.7022 9.95095C15.5684 10.0645 14.6646 9.23842 14.6808 8.14824ZM15.7788 8.04259C15.7775 8.26612 15.8303 8.47438 15.9648 8.65557C16.2407 9.02668 16.8148 9.02973 17.0964 8.66386C17.3505 8.3338 17.3514 7.77321 17.1008 7.43965C16.9703 7.26588 16.7965 7.17595 16.5813 7.16459C16.1097 7.13927 15.7806 7.4999 15.7788 8.04259Z" fill="#223970"/>
<path d="M14.2952 7.27756C14.2952 7.95385 14.2987 8.63014 14.2939 9.30686C14.2912 9.69368 13.9498 9.9552 13.5826 9.86265C13.3622 9.8072 13.1976 9.57318 13.1971 9.30075C13.1954 8.14421 13.1963 6.9881 13.1963 5.83156C13.1963 5.62811 13.1936 5.42422 13.1971 5.22076C13.2028 4.88502 13.4167 4.66716 13.7376 4.6641C14.0694 4.66061 14.2917 4.87935 14.2939 5.22688C14.2982 5.91015 14.2952 6.59386 14.2952 7.27756Z" fill="#223970"/>
</g>
<defs>
<clipPath id="clip0_646_1344">
<rect width="20" height="19.0425" fill="white"/>
</clipPath>
</defs>
</svg>
