<svg width="16" height="19" viewBox="0 0 16 19" fill="none" xmlns="http://www.w3.org/2000/svg">
<path d="M15.7959 4.24404C13.452 4.24404 11.5518 2.34385 11.5518 0H8.36879V12.3178C8.36879 13.7492 7.20733 14.9106 5.77591 14.9106C4.34449 14.9106 3.18303 13.7492 3.18303 12.3178C3.18303 10.8863 4.34449 9.72487 5.77591 9.72487C6.04378 9.72487 6.34932 9.76463 6.59207 9.84206V6.59835C6.3263 6.56068 6.05215 6.54184 5.77591 6.54184C2.5866 6.54184 0 9.12845 0 12.3178C0 15.5071 2.5866 18.0937 5.77591 18.0937C8.96522 18.0937 11.5518 15.5071 11.5518 12.3178V5.79893C12.7091 6.74275 14.1866 7.30987 15.7959 7.30987V4.24404Z" fill="#223970"/>
<path d="M15.7962 5.05193C14.7708 4.8301 13.8835 4.23786 13.2808 3.4217C12.4646 2.819 11.8724 1.93168 11.6506 0.90625H9.27113V13.224C9.27113 14.6554 8.10967 15.8169 6.67825 15.8169C5.73025 15.8169 4.90153 15.3084 4.44951 14.5508C3.69194 14.0988 3.18341 13.27 3.18341 12.322C3.18341 10.8906 4.34487 9.72916 5.77629 9.72916C6.04416 9.72916 6.3497 9.77102 6.59245 9.84635V7.4481C3.44291 7.49414 0.902344 10.0619 0.902344 13.224C0.902344 14.5885 1.37739 15.8441 2.16844 16.8319C3.1562 17.6229 4.41184 18.0519 5.77629 18.098C9.62062 18.2277 11.5689 15.8755 11.5522 12.322V5.80322C12.7095 6.74703 14.1869 7.31416 15.7962 7.31416V5.05193Z" fill="#223970"/>
</svg>
