<svg width="22" height="21" viewBox="0 0 22 21" fill="none" xmlns="http://www.w3.org/2000/svg">
<path d="M14.8857 0.3125H7.11434C3.66789 0.3125 0.875 3.10539 0.875 6.55184V14.3232C0.875 17.7675 3.66789 20.5625 7.11434 20.5625H14.8857C18.3321 20.5625 21.125 17.7696 21.125 14.3232V6.55184C21.125 3.10539 18.3321 0.3125 14.8857 0.3125ZM19.1811 13.5771C19.1811 16.3616 16.9241 18.6186 14.1396 18.6186H7.86037C5.07589 18.6186 2.81888 16.3616 2.81888 13.5771V7.29577C2.81888 4.51339 5.07589 2.25428 7.86037 2.25428H14.1396C16.922 2.25428 19.1811 4.51339 19.1811 7.29577V13.5771Z" fill="#223970"/>
<path d="M11.2711 5.14062C8.3248 5.14062 5.9375 7.52792 5.9375 10.4742C5.9375 13.4184 8.3248 15.8078 11.2711 15.8078C14.2174 15.8078 16.6047 13.4184 16.6047 10.4742C16.6047 7.52792 14.2174 5.14062 11.2711 5.14062ZM11.2711 13.6832C9.49743 13.6832 8.06211 12.2458 8.06211 10.4742C8.06211 8.70056 9.49743 7.26524 11.2711 7.26524C13.0427 7.26524 14.4801 8.70056 14.4801 10.4742C14.4801 12.2458 13.0448 13.6832 11.2711 13.6832Z" fill="#223970"/>
<path d="M17.5919 5.06069C17.5919 5.80882 16.9825 6.41615 16.2344 6.41615C15.4862 6.41615 14.8789 5.80882 14.8789 5.06069C14.8789 4.31256 15.4862 3.70312 16.2344 3.70312C16.9846 3.70312 17.5919 4.31046 17.5919 5.06069Z" fill="#223970"/>
</svg>
